<svg width="500" height="500" viewBox="0 0 500 500" fill="none" xmlns="http://www.w3.org/2000/svg">
<path d="M356.39 130.86C356.39 130.86 316.13 86.75 252.39 88.86C188.65 90.97 134.28 133.71 89.33 167.15C44.38 200.59 32.33 252.53 58.46 293.08C84.59 333.63 126.23 316.56 179.24 342.88C232.25 369.2 242.32 384.15 301.37 377.75C360.42 371.35 405.37 305.89 398.67 236.16C391.97 166.43 356.39 130.86 356.39 130.86Z" fill="#5B721C"/>
<path opacity="0.7" d="M356.39 130.86C356.39 130.86 316.13 86.75 252.39 88.86C188.65 90.97 134.28 133.71 89.33 167.15C44.38 200.59 32.33 252.53 58.46 293.08C84.59 333.63 126.23 316.56 179.24 342.88C232.25 369.2 242.32 384.15 301.37 377.75C360.42 371.35 405.37 305.89 398.67 236.16C391.97 166.43 356.39 130.86 356.39 130.86Z" fill="white"/>
<path d="M257.62 403.27C367.26 403.27 456.14 398.421 456.14 392.44C456.14 386.459 367.26 381.61 257.62 381.61C147.98 381.61 59.1 386.459 59.1 392.44C59.1 398.421 147.98 403.27 257.62 403.27Z" fill="#5B721C"/>
<path opacity="0.3" d="M257.62 403.27C367.26 403.27 456.14 398.421 456.14 392.44C456.14 386.459 367.26 381.61 257.62 381.61C147.98 381.61 59.1 386.459 59.1 392.44C59.1 398.421 147.98 403.27 257.62 403.27Z" fill="white"/>
<path d="M374.94 229.2C374.88 229.2 375.63 225.47 375.71 225.2C376.57 222.54 379.81 217.9 382.94 217.91C383.46 217.925 383.972 218.049 384.441 218.275C384.91 218.5 385.327 218.822 385.664 219.219C386 219.616 386.25 220.08 386.396 220.579C386.541 221.079 386.58 221.604 386.51 222.12C386.28 224.33 384.3 226.2 382.51 227.29C380.41 228.6 374.94 229.2 374.94 229.2Z" fill="#5B721C"/>
<path d="M368.87 204.09C371.82 205.15 373.29 210.61 373.19 213.41C373.19 213.65 372.63 217.41 372.58 217.41H372.52C372.75 218.27 373 219.2 373.25 220.21C373.69 222.09 374.17 224.21 374.54 226.57C374.969 229.101 375.249 231.656 375.38 234.22C375.539 237.09 375.442 239.968 375.09 242.82C375.084 242.853 375.084 242.887 375.09 242.92C375.48 242.09 376.63 239.79 376.74 239.62C378.28 237.28 382.62 233.62 385.65 234.5C386.147 234.653 386.605 234.909 386.997 235.251C387.388 235.592 387.704 236.012 387.922 236.484C388.141 236.955 388.258 237.467 388.267 237.987C388.275 238.506 388.174 239.022 387.97 239.5C387.17 241.56 384.77 242.85 382.76 243.42C380.49 244.07 375.43 243.3 375.03 243.24C374.603 246.132 373.982 248.992 373.17 251.8C372.703 253.44 372.197 255.08 371.65 256.72C372 256.01 372.33 255.38 372.38 255.29C373.92 252.95 378.26 249.29 381.29 250.16C381.788 250.312 382.247 250.567 382.64 250.908C383.032 251.25 383.348 251.67 383.567 252.142C383.786 252.614 383.903 253.126 383.91 253.646C383.918 254.166 383.815 254.682 383.61 255.16C382.81 257.23 380.41 258.51 378.4 259.09C376.39 259.67 372.03 259.09 370.89 258.94C370.68 259.56 370.47 260.19 370.25 260.81C369.25 263.81 368.17 266.81 367.25 269.75C366.92 270.75 366.63 271.83 366.34 272.87C366.66 272.24 366.93 271.71 366.98 271.64C368.51 269.3 372.86 265.64 375.88 266.51C376.377 266.663 376.835 266.919 377.227 267.261C377.619 267.602 377.935 268.022 378.154 268.493C378.374 268.964 378.492 269.476 378.502 269.996C378.511 270.515 378.412 271.031 378.21 271.51C377.41 273.57 375 274.86 372.99 275.43C370.98 276 367.05 275.5 365.69 275.31C365.42 276.39 365.16 277.46 364.95 278.51C364.82 279.23 364.65 279.92 364.56 280.65C364.47 281.38 364.36 282.09 364.26 282.79C364.12 284.16 363.96 285.58 363.86 286.92C363.78 287.85 363.72 288.74 363.66 289.63C363.97 288.63 364.66 286.57 364.71 286.4C365.82 284.202 367.472 282.323 369.51 280.94C369.621 280.689 369.758 280.451 369.92 280.23C370.203 279.794 370.575 279.422 371.012 279.138C371.448 278.855 371.939 278.667 372.453 278.586C372.967 278.505 373.493 278.532 373.995 278.668C374.498 278.803 374.966 279.042 375.37 279.37C377.75 281.37 377.15 287.05 376.06 289.63C376 289.78 375.11 291.35 374.54 292.33C374.97 291.81 375.37 291.33 375.82 290.75C376.69 289.69 377.59 288.65 378.55 287.53L380.02 285.94C380.5 285.39 381.08 284.88 381.61 284.35C382.86 283.14 384.19 281.97 385.56 280.82C384.62 280.06 381.35 277.29 380.41 275.41C379.47 273.53 378.8 270.9 379.78 268.92C379.994 268.444 380.307 268.019 380.696 267.672C381.086 267.326 381.544 267.065 382.042 266.907C382.539 266.75 383.064 266.699 383.582 266.758C384.101 266.817 384.601 266.985 385.05 267.25C387.7 268.91 387.97 274.56 387.28 277.25C387.28 277.42 386.52 279.31 386.11 280.34C386.94 279.66 387.76 278.97 388.62 278.34C391.1 276.42 393.67 274.56 396.22 272.69L398.55 270.96C398.22 270.69 394.26 267.49 393.2 265.39C392.27 263.52 391.59 260.88 392.57 258.89C392.786 258.415 393.098 257.991 393.488 257.646C393.878 257.3 394.336 257.039 394.833 256.882C395.33 256.725 395.855 256.673 396.373 256.732C396.891 256.79 397.39 256.956 397.84 257.22C400.49 258.89 400.76 264.54 400.07 267.22C400.02 267.43 398.99 270.15 398.69 270.83C400.4 269.55 402.09 268.27 403.69 266.94C405.881 265.151 407.952 263.22 409.89 261.16C409.74 261.04 405.59 257.72 404.51 255.56C403.57 253.69 402.9 251.05 403.88 249.07C404.093 248.595 404.404 248.17 404.793 247.823C405.182 247.476 405.64 247.215 406.136 247.058C406.633 246.9 407.157 246.849 407.675 246.908C408.192 246.967 408.692 247.135 409.14 247.4C411.8 249.06 412.07 254.71 411.38 257.4C411.33 257.57 410.55 259.65 410.15 260.63L410.31 260.72C412.207 258.596 413.91 256.307 415.4 253.88C416.23 252.56 416.96 251.25 417.64 249.95C416.8 249.41 413.01 246.95 411.82 245.07C410.63 243.19 409.73 240.77 410.48 238.69C410.642 238.201 410.904 237.75 411.249 237.367C411.594 236.985 412.016 236.678 412.486 236.468C412.957 236.257 413.466 236.146 413.981 236.143C414.497 236.14 415.007 236.245 415.48 236.45C418.31 237.81 419.19 243.4 418.8 246.17C418.8 246.32 418.4 247.83 418.11 248.93C418.4 248.34 418.72 247.74 418.99 247.17C419.99 245.03 420.84 243.01 421.54 241.17C421.94 240.17 422.27 239.17 422.54 238.34C421.99 237.34 419.85 233.49 419.64 231.34C419.43 229.19 419.77 226.55 421.4 225.05C421.772 224.685 422.216 224.403 422.704 224.221C423.192 224.04 423.713 223.963 424.233 223.996C424.753 224.029 425.26 224.171 425.721 224.413C426.182 224.655 426.587 224.991 426.91 225.4C428.79 227.91 427 233.27 425.38 235.56C425.24 235.75 422.69 238.56 422.66 238.56V238.5C422.38 239.35 422.08 240.26 421.72 241.24C421.06 243.05 420.28 245.1 419.3 247.24C418.256 249.586 417.077 251.87 415.77 254.08C414.314 256.557 412.641 258.899 410.77 261.08L410.7 261.16C411.48 260.67 413.7 259.4 413.89 259.32C416.47 258.22 422.09 257.59 424.15 259.96C424.48 260.362 424.722 260.829 424.86 261.331C424.999 261.833 425.03 262.358 424.953 262.872C424.876 263.387 424.691 263.879 424.412 264.318C424.132 264.757 423.764 265.132 423.33 265.42C421.52 266.7 418.8 266.42 416.81 265.81C414.56 265.1 410.81 261.67 410.46 261.4C408.51 263.576 406.415 265.617 404.19 267.51C402.89 268.63 401.56 269.71 400.19 270.77C400.88 270.38 401.5 270.03 401.59 269.99C404.16 268.89 409.78 268.26 411.84 270.63C412.172 271.032 412.415 271.499 412.554 272C412.693 272.502 412.725 273.028 412.648 273.543C412.57 274.058 412.386 274.551 412.105 274.99C411.825 275.429 411.455 275.803 411.02 276.09C409.22 277.37 406.5 277.09 404.51 276.48C402.52 275.87 399.19 272.99 398.33 272.22L396.76 273.43C394.24 275.36 391.76 277.27 389.31 279.22C388.46 279.91 387.65 280.62 386.83 281.32C387.45 280.97 387.96 280.68 388.05 280.65C390.62 279.54 396.24 278.92 398.3 281.28C398.633 281.681 398.878 282.148 399.018 282.65C399.158 283.152 399.19 283.678 399.113 284.194C399.035 284.709 398.85 285.202 398.568 285.641C398.287 286.08 397.916 286.455 397.48 286.74C395.67 288.02 392.96 287.74 390.97 287.14C388.98 286.54 385.97 283.92 384.97 283.01C384.16 283.76 383.34 284.5 382.59 285.27C382.08 285.8 381.59 286.27 381.09 286.84C380.59 287.41 380.09 287.92 379.65 288.46C378.78 289.52 377.87 290.62 377.04 291.68C376.46 292.41 375.92 293.12 375.38 293.83C376.21 293.14 377.89 291.83 378.04 291.72C380.41 290.24 385.87 288.77 388.27 290.79C388.658 291.139 388.967 291.565 389.18 292.042C389.392 292.518 389.501 293.034 389.501 293.555C389.501 294.076 389.392 294.592 389.18 295.068C388.967 295.545 388.658 295.971 388.27 296.32C386.68 297.85 383.96 298.02 381.9 297.7C379.62 297.34 375.5 294.7 374.99 294.32C374.09 295.5 373.23 296.66 372.43 297.77C369.66 301.6 367.5 304.89 366.02 307.22L365.87 307.45L363.95 306.52C364.05 306.37 364.15 306.23 364.25 306.07C365.8 303.75 368.06 300.47 370.94 296.66C371.85 295.46 372.84 294.19 373.87 292.89C372.798 291.724 371.796 290.495 370.87 289.21C368.66 290.07 364.07 290.11 363.48 290.11C363.39 291.59 363.31 293.03 363.25 294.39C363.05 299.12 363.07 303.06 363.12 305.81V306.14L361.01 305.14C361.01 302.41 361.12 298.7 361.4 294.33C361.49 292.82 361.62 291.21 361.77 289.57C361.18 289.42 356.41 288.19 354.61 286.75C352.98 285.45 351.26 283.33 351.32 281.12C351.314 280.599 351.419 280.082 351.627 279.604C351.835 279.126 352.142 278.698 352.527 278.346C352.912 277.995 353.367 277.729 353.862 277.566C354.357 277.403 354.881 277.346 355.4 277.4C358.51 277.8 361.11 282.82 361.63 285.57C361.63 285.73 361.79 287.57 361.85 288.67C361.92 287.99 361.97 287.34 362.04 286.67C362.18 285.3 362.36 283.93 362.55 282.46C362.66 281.76 362.78 281.05 362.89 280.33C363 279.61 363.19 278.87 363.34 278.13C363.72 276.43 364.18 274.72 364.69 273.01C363.49 272.88 359.24 272.38 357.41 271.34C355.58 270.3 353.58 268.46 353.31 266.27C353.225 265.755 353.249 265.228 353.382 264.724C353.515 264.219 353.753 263.748 354.081 263.342C354.409 262.936 354.819 262.604 355.284 262.367C355.749 262.131 356.259 261.995 356.78 261.97C359.91 261.89 363.25 266.46 364.17 269.1C364.23 269.27 364.68 271.24 364.9 272.33C365.22 271.33 365.52 270.27 365.9 269.25C366.9 266.25 368.03 263.31 369.13 260.34C369.47 259.43 369.79 258.52 370.13 257.62C369.7 257.62 364.63 257.09 362.59 255.92C360.78 254.92 358.76 253.04 358.48 250.85C358.398 250.336 358.425 249.81 358.559 249.306C358.693 248.803 358.932 248.334 359.259 247.928C359.586 247.523 359.994 247.191 360.458 246.953C360.922 246.716 361.43 246.579 361.95 246.55C365.09 246.47 368.43 251.04 369.35 253.68C369.42 253.88 370.06 256.68 370.19 257.45C370.91 255.45 371.62 253.45 372.19 251.45C373.036 248.75 373.704 245.997 374.19 243.21C373.99 243.21 368.69 242.71 366.61 241.51C364.79 240.51 362.77 238.63 362.5 236.44C362.418 235.926 362.445 235.4 362.579 234.896C362.713 234.393 362.952 233.924 363.279 233.518C363.606 233.113 364.014 232.781 364.478 232.543C364.942 232.306 365.45 232.169 365.97 232.14C369.1 232.07 372.44 236.63 373.36 239.27C373.42 239.45 373.91 241.61 374.12 242.64H374.3C374.713 239.823 374.873 236.975 374.78 234.13C374.78 232.56 374.63 231.07 374.48 229.61C373.48 229.61 368.94 229.61 366.94 228.75C364.94 227.89 362.81 226.31 362.29 224.16C362.151 223.656 362.12 223.129 362.2 222.613C362.279 222.096 362.466 221.603 362.749 221.164C363.033 220.725 363.405 220.35 363.843 220.065C364.281 219.78 364.774 219.591 365.29 219.51C368.4 219.09 372.22 223.26 373.43 225.79C373.49 225.93 374.01 227.4 374.36 228.47C374.29 227.82 374.22 227.14 374.13 226.52C373.82 224.17 373.38 222.03 372.98 220.15C372.74 219.08 372.51 218.15 372.28 217.22C371.28 216.72 367.36 214.66 366.01 212.99C364.66 211.32 363.48 208.93 364.01 206.78C364.124 206.268 364.346 205.785 364.66 205.365C364.975 204.944 365.375 204.595 365.835 204.341C366.294 204.087 366.802 203.933 367.325 203.89C367.849 203.846 368.375 203.915 368.87 204.09Z" fill="#5B721C"/>
<path d="M425.55 252.42C423.1 252.32 418.2 249.81 418.2 249.8C418.2 249.79 420.83 247.08 421.02 246.93C423.21 245.18 428.47 243.1 431.08 244.83C431.506 245.131 431.863 245.518 432.13 245.966C432.396 246.414 432.566 246.913 432.627 247.43C432.688 247.948 432.64 248.473 432.486 248.97C432.331 249.468 432.074 249.928 431.73 250.32C430.33 252 427.64 252.5 425.55 252.42Z" fill="#5B721C"/>
<g opacity="0.5">
<path d="M374.94 229.2C374.88 229.2 375.63 225.47 375.71 225.2C376.57 222.54 379.81 217.9 382.94 217.91C383.46 217.925 383.972 218.049 384.441 218.275C384.91 218.5 385.327 218.822 385.664 219.219C386 219.616 386.25 220.08 386.396 220.579C386.541 221.079 386.58 221.604 386.51 222.12C386.28 224.33 384.3 226.2 382.51 227.29C380.41 228.6 374.94 229.2 374.94 229.2Z" fill="#949494"/>
<path d="M368.87 204.09C371.82 205.15 373.29 210.61 373.19 213.41C373.19 213.65 372.63 217.41 372.58 217.41H372.52C372.75 218.27 373 219.2 373.25 220.21C373.69 222.09 374.17 224.21 374.54 226.57C374.969 229.101 375.249 231.656 375.38 234.22C375.539 237.09 375.442 239.968 375.09 242.82C375.084 242.853 375.084 242.887 375.09 242.92C375.48 242.09 376.63 239.79 376.74 239.62C378.28 237.28 382.62 233.62 385.65 234.5C386.147 234.653 386.605 234.909 386.997 235.251C387.388 235.592 387.704 236.012 387.922 236.484C388.141 236.955 388.258 237.467 388.267 237.987C388.275 238.506 388.174 239.022 387.97 239.5C387.17 241.56 384.77 242.85 382.76 243.42C380.49 244.07 375.43 243.3 375.03 243.24C374.603 246.132 373.982 248.992 373.17 251.8C372.703 253.44 372.197 255.08 371.65 256.72C372 256.01 372.33 255.38 372.38 255.29C373.92 252.95 378.26 249.29 381.29 250.16C381.788 250.312 382.247 250.567 382.64 250.908C383.032 251.25 383.348 251.67 383.567 252.142C383.786 252.614 383.903 253.126 383.91 253.646C383.918 254.166 383.815 254.682 383.61 255.16C382.81 257.23 380.41 258.51 378.4 259.09C376.39 259.67 372.03 259.09 370.89 258.94C370.68 259.56 370.47 260.19 370.25 260.81C369.25 263.81 368.17 266.81 367.25 269.75C366.92 270.75 366.63 271.83 366.34 272.87C366.66 272.24 366.93 271.71 366.98 271.64C368.51 269.3 372.86 265.64 375.88 266.51C376.377 266.663 376.835 266.919 377.227 267.261C377.619 267.602 377.935 268.022 378.154 268.493C378.374 268.964 378.492 269.476 378.502 269.996C378.511 270.515 378.412 271.031 378.21 271.51C377.41 273.57 375 274.86 372.99 275.43C370.98 276 367.05 275.5 365.69 275.31C365.42 276.39 365.16 277.46 364.95 278.51C364.82 279.23 364.65 279.92 364.56 280.65C364.47 281.38 364.36 282.09 364.26 282.79C364.12 284.16 363.96 285.58 363.86 286.92C363.78 287.85 363.72 288.74 363.66 289.63C363.97 288.63 364.66 286.57 364.71 286.4C365.82 284.202 367.472 282.323 369.51 280.94C369.621 280.689 369.758 280.451 369.92 280.23C370.203 279.794 370.575 279.422 371.012 279.138C371.448 278.855 371.939 278.667 372.453 278.586C372.967 278.505 373.493 278.532 373.995 278.668C374.498 278.803 374.966 279.042 375.37 279.37C377.75 281.37 377.15 287.05 376.06 289.63C376 289.78 375.11 291.35 374.54 292.33C374.97 291.81 375.37 291.33 375.82 290.75C376.69 289.69 377.59 288.65 378.55 287.53L380.02 285.94C380.5 285.39 381.08 284.88 381.61 284.35C382.86 283.14 384.19 281.97 385.56 280.82C384.62 280.06 381.35 277.29 380.41 275.41C379.47 273.53 378.8 270.9 379.78 268.92C379.994 268.444 380.307 268.019 380.696 267.672C381.086 267.326 381.544 267.065 382.042 266.907C382.539 266.75 383.064 266.699 383.582 266.758C384.101 266.817 384.601 266.985 385.05 267.25C387.7 268.91 387.97 274.56 387.28 277.25C387.28 277.42 386.52 279.31 386.11 280.34C386.94 279.66 387.76 278.97 388.62 278.34C391.1 276.42 393.67 274.56 396.22 272.69L398.55 270.96C398.22 270.69 394.26 267.49 393.2 265.39C392.27 263.52 391.59 260.88 392.57 258.89C392.786 258.415 393.098 257.991 393.488 257.646C393.878 257.3 394.336 257.039 394.833 256.882C395.33 256.725 395.855 256.673 396.373 256.732C396.891 256.79 397.39 256.956 397.84 257.22C400.49 258.89 400.76 264.54 400.07 267.22C400.02 267.43 398.99 270.15 398.69 270.83C400.4 269.55 402.09 268.27 403.69 266.94C405.881 265.151 407.952 263.22 409.89 261.16C409.74 261.04 405.59 257.72 404.51 255.56C403.57 253.69 402.9 251.05 403.88 249.07C404.093 248.595 404.404 248.17 404.793 247.823C405.182 247.476 405.64 247.215 406.136 247.058C406.633 246.9 407.157 246.849 407.675 246.908C408.192 246.967 408.692 247.135 409.14 247.4C411.8 249.06 412.07 254.71 411.38 257.4C411.33 257.57 410.55 259.65 410.15 260.63L410.31 260.72C412.207 258.596 413.91 256.307 415.4 253.88C416.23 252.56 416.96 251.25 417.64 249.95C416.8 249.41 413.01 246.95 411.82 245.07C410.63 243.19 409.73 240.77 410.48 238.69C410.642 238.201 410.904 237.75 411.249 237.367C411.594 236.985 412.016 236.678 412.486 236.468C412.957 236.257 413.466 236.146 413.981 236.143C414.497 236.14 415.007 236.245 415.48 236.45C418.31 237.81 419.19 243.4 418.8 246.17C418.8 246.32 418.4 247.83 418.11 248.93C418.4 248.34 418.72 247.74 418.99 247.17C419.99 245.03 420.84 243.01 421.54 241.17C421.94 240.17 422.27 239.17 422.54 238.34C421.99 237.34 419.85 233.49 419.64 231.34C419.43 229.19 419.77 226.55 421.4 225.05C421.772 224.685 422.216 224.403 422.704 224.221C423.192 224.04 423.713 223.963 424.233 223.996C424.753 224.029 425.26 224.171 425.721 224.413C426.182 224.655 426.587 224.991 426.91 225.4C428.79 227.91 427 233.27 425.38 235.56C425.24 235.75 422.69 238.56 422.66 238.56V238.5C422.38 239.35 422.08 240.26 421.72 241.24C421.06 243.05 420.28 245.1 419.3 247.24C418.256 249.586 417.077 251.87 415.77 254.08C414.314 256.557 412.641 258.899 410.77 261.08L410.7 261.16C411.48 260.67 413.7 259.4 413.89 259.32C416.47 258.22 422.09 257.59 424.15 259.96C424.48 260.362 424.722 260.829 424.86 261.331C424.999 261.833 425.03 262.358 424.953 262.872C424.876 263.387 424.691 263.879 424.412 264.318C424.132 264.757 423.764 265.132 423.33 265.42C421.52 266.7 418.8 266.42 416.81 265.81C414.56 265.1 410.81 261.67 410.46 261.4C408.51 263.576 406.415 265.617 404.19 267.51C402.89 268.63 401.56 269.71 400.19 270.77C400.88 270.38 401.5 270.03 401.59 269.99C404.16 268.89 409.78 268.26 411.84 270.63C412.172 271.032 412.415 271.499 412.554 272C412.693 272.502 412.725 273.028 412.648 273.543C412.57 274.058 412.386 274.551 412.105 274.99C411.825 275.429 411.455 275.803 411.02 276.09C409.22 277.37 406.5 277.09 404.51 276.48C402.52 275.87 399.19 272.99 398.33 272.22L396.76 273.43C394.24 275.36 391.76 277.27 389.31 279.22C388.46 279.91 387.65 280.62 386.83 281.32C387.45 280.97 387.96 280.68 388.05 280.65C390.62 279.54 396.24 278.92 398.3 281.28C398.633 281.681 398.878 282.148 399.018 282.65C399.158 283.152 399.19 283.678 399.113 284.194C399.035 284.709 398.85 285.202 398.568 285.641C398.287 286.08 397.916 286.455 397.48 286.74C395.67 288.02 392.96 287.74 390.97 287.14C388.98 286.54 385.97 283.92 384.97 283.01C384.16 283.76 383.34 284.5 382.59 285.27C382.08 285.8 381.59 286.27 381.09 286.84C380.59 287.41 380.09 287.92 379.65 288.46C378.78 289.52 377.87 290.62 377.04 291.68C376.46 292.41 375.92 293.12 375.38 293.83C376.21 293.14 377.89 291.83 378.04 291.72C380.41 290.24 385.87 288.77 388.27 290.79C388.658 291.139 388.967 291.565 389.18 292.042C389.392 292.518 389.501 293.034 389.501 293.555C389.501 294.076 389.392 294.592 389.18 295.068C388.967 295.545 388.658 295.971 388.27 296.32C386.68 297.85 383.96 298.02 381.9 297.7C379.62 297.34 375.5 294.7 374.99 294.32C374.09 295.5 373.23 296.66 372.43 297.77C369.66 301.6 367.5 304.89 366.02 307.22L365.87 307.45L363.95 306.52C364.05 306.37 364.15 306.23 364.25 306.07C365.8 303.75 368.06 300.47 370.94 296.66C371.85 295.46 372.84 294.19 373.87 292.89C372.798 291.724 371.796 290.495 370.87 289.21C368.66 290.07 364.07 290.11 363.48 290.11C363.39 291.59 363.31 293.03 363.25 294.39C363.05 299.12 363.07 303.06 363.12 305.81V306.14L361.01 305.14C361.01 302.41 361.12 298.7 361.4 294.33C361.49 292.82 361.62 291.21 361.77 289.57C361.18 289.42 356.41 288.19 354.61 286.75C352.98 285.45 351.26 283.33 351.32 281.12C351.314 280.599 351.419 280.082 351.627 279.604C351.835 279.126 352.142 278.698 352.527 278.346C352.912 277.995 353.367 277.729 353.862 277.566C354.357 277.403 354.881 277.346 355.4 277.4C358.51 277.8 361.11 282.82 361.63 285.57C361.63 285.73 361.79 287.57 361.85 288.67C361.92 287.99 361.97 287.34 362.04 286.67C362.18 285.3 362.36 283.93 362.55 282.46C362.66 281.76 362.78 281.05 362.89 280.33C363 279.61 363.19 278.87 363.34 278.13C363.72 276.43 364.18 274.72 364.69 273.01C363.49 272.88 359.24 272.38 357.41 271.34C355.58 270.3 353.58 268.46 353.31 266.27C353.225 265.755 353.249 265.228 353.382 264.724C353.515 264.219 353.753 263.748 354.081 263.342C354.409 262.936 354.819 262.604 355.284 262.367C355.749 262.131 356.259 261.995 356.78 261.97C359.91 261.89 363.25 266.46 364.17 269.1C364.23 269.27 364.68 271.24 364.9 272.33C365.22 271.33 365.52 270.27 365.9 269.25C366.9 266.25 368.03 263.31 369.13 260.34C369.47 259.43 369.79 258.52 370.13 257.62C369.7 257.62 364.63 257.09 362.59 255.92C360.78 254.92 358.76 253.04 358.48 250.85C358.398 250.336 358.425 249.81 358.559 249.306C358.693 248.803 358.932 248.334 359.259 247.928C359.586 247.523 359.994 247.191 360.458 246.953C360.922 246.716 361.43 246.579 361.95 246.55C365.09 246.47 368.43 251.04 369.35 253.68C369.42 253.88 370.06 256.68 370.19 257.45C370.91 255.45 371.62 253.45 372.19 251.45C373.036 248.75 373.704 245.997 374.19 243.21C373.99 243.21 368.69 242.71 366.61 241.51C364.79 240.51 362.77 238.63 362.5 236.44C362.418 235.926 362.445 235.4 362.579 234.896C362.713 234.393 362.952 233.924 363.279 233.518C363.606 233.113 364.014 232.781 364.478 232.543C364.942 232.306 365.45 232.169 365.97 232.14C369.1 232.07 372.44 236.63 373.36 239.27C373.42 239.45 373.91 241.61 374.12 242.64H374.3C374.713 239.823 374.873 236.975 374.78 234.13C374.78 232.56 374.63 231.07 374.48 229.61C373.48 229.61 368.94 229.61 366.94 228.75C364.94 227.89 362.81 226.31 362.29 224.16C362.151 223.656 362.12 223.129 362.2 222.613C362.279 222.096 362.466 221.603 362.749 221.164C363.033 220.725 363.405 220.35 363.843 220.065C364.281 219.78 364.774 219.591 365.29 219.51C368.4 219.09 372.22 223.26 373.43 225.79C373.49 225.93 374.01 227.4 374.36 228.47C374.29 227.82 374.22 227.14 374.13 226.52C373.82 224.17 373.38 222.03 372.98 220.15C372.74 219.08 372.51 218.15 372.28 217.22C371.28 216.72 367.36 214.66 366.01 212.99C364.66 211.32 363.48 208.93 364.01 206.78C364.124 206.268 364.346 205.785 364.66 205.365C364.975 204.944 365.375 204.595 365.835 204.341C366.294 204.087 366.802 203.933 367.325 203.89C367.849 203.846 368.375 203.915 368.87 204.09Z" fill="#949494"/>
<path d="M425.55 252.42C423.1 252.32 418.2 249.81 418.2 249.8C418.2 249.79 420.83 247.08 421.02 246.93C423.21 245.18 428.47 243.1 431.08 244.83C431.506 245.131 431.863 245.518 432.13 245.966C432.396 246.414 432.566 246.913 432.627 247.43C432.688 247.948 432.64 248.473 432.486 248.97C432.331 249.468 432.074 249.928 431.73 250.32C430.33 252 427.64 252.5 425.55 252.42Z" fill="#949494"/>
</g>
<path d="M396.94 313.78C396.94 313.78 382.07 277.93 373.75 279.49C365.43 281.05 388 336.63 388 336.63C388 336.63 361.84 287.28 344 287.28C326.16 287.28 350.54 341.83 373.13 360.01C373.13 360.01 337.46 321.57 316.65 329.88C295.84 338.19 358.27 377.15 358.27 377.15C358.27 377.15 322 365.72 326.16 374.55C330.32 383.38 341.62 384.94 341.62 384.94L300.62 387.02H443.32L411.21 383.9C411.21 383.9 444.51 367.28 435.59 360.53C426.67 353.78 407.05 368.32 407.05 368.32C407.05 368.32 440.94 330.92 434.4 316.89C427.86 302.86 398.72 342.35 398.72 342.35C398.72 342.35 422.51 291.96 417.72 283.13C412.93 274.3 396.94 313.78 396.94 313.78Z" fill="#5B721C"/>
<path opacity="0.4" d="M396.94 313.78C396.94 313.78 382.07 277.93 373.75 279.49C365.43 281.05 388 336.63 388 336.63C388 336.63 361.84 287.28 344 287.28C326.16 287.28 350.54 341.83 373.13 360.01C373.13 360.01 337.46 321.57 316.65 329.88C295.84 338.19 358.27 377.15 358.27 377.15C358.27 377.15 322 365.72 326.16 374.55C330.32 383.38 341.62 384.94 341.62 384.94L300.62 387.02H443.32L411.21 383.9C411.21 383.9 444.51 367.28 435.59 360.53C426.67 353.78 407.05 368.32 407.05 368.32C407.05 368.32 440.94 330.92 434.4 316.89C427.86 302.86 398.72 342.35 398.72 342.35C398.72 342.35 422.51 291.96 417.72 283.13C412.93 274.3 396.94 313.78 396.94 313.78Z" fill="#949494"/>
<path d="M401.7 315.66C388.61 354.31 388.61 381.66 388.61 381.66C388.61 381.66 404.07 382.25 420.13 370.36" stroke="#263238" stroke-linecap="round" stroke-linejoin="round"/>
<path d="M395.16 336.48C392.46 324.923 388.88 313.59 384.45 302.58" stroke="#263238" stroke-linecap="round" stroke-linejoin="round"/>
<path d="M356.51 313.88L389.8 363.23C389.8 363.23 412.4 344.23 420.13 333.5" stroke="#263238" stroke-linecap="round" stroke-linejoin="round"/>
<path d="M389.21 375.13C389.21 375.13 354.13 358.48 339.86 349" stroke="#263238" stroke-linecap="round" stroke-linejoin="round"/>
<path d="M357.72 109H250.88C246.506 109 242.96 112.546 242.96 116.92V379.1C242.96 383.474 246.506 387.02 250.88 387.02H357.72C362.094 387.02 365.64 383.474 365.64 379.1V116.92C365.64 112.546 362.094 109 357.72 109Z" fill="#CDD4BA" stroke="#263238" stroke-linecap="round" stroke-linejoin="round"/>
<path d="M361.54 157.67C361.108 157.67 360.693 157.498 360.387 157.193C360.082 156.887 359.91 156.472 359.91 156.04V134.19C359.942 133.778 360.128 133.394 360.432 133.114C360.735 132.834 361.132 132.678 361.545 132.678C361.958 132.678 362.355 132.834 362.659 133.114C362.962 133.394 363.148 133.778 363.18 134.19V156C363.184 156.218 363.145 156.434 363.064 156.637C362.983 156.839 362.863 157.024 362.71 157.179C362.558 157.335 362.376 157.458 362.175 157.542C361.974 157.627 361.758 157.67 361.54 157.67Z" fill="#263238"/>
<path d="M361.54 177.91C361.108 177.91 360.693 177.738 360.387 177.433C360.082 177.127 359.91 176.712 359.91 176.28V164.07C359.942 163.658 360.128 163.274 360.432 162.994C360.735 162.714 361.132 162.558 361.545 162.558C361.958 162.558 362.355 162.714 362.659 162.994C362.962 163.274 363.148 163.658 363.18 164.07V176.28C363.177 176.713 363.003 177.128 362.696 177.433C362.389 177.739 361.973 177.91 361.54 177.91Z" fill="#263238"/>
<path d="M348.47 109H241.63C237.256 109 233.71 112.546 233.71 116.92V379.1C233.71 383.474 237.256 387.02 241.63 387.02H348.47C352.844 387.02 356.39 383.474 356.39 379.1V116.92C356.39 112.546 352.844 109 348.47 109Z" fill="#263238" stroke="#263238" stroke-linecap="round" stroke-linejoin="round"/>
<path d="M348.22 127.51H241.88V365.97H348.22V127.51Z" fill="#5B721C"/>
<path d="M279.26 119.89H307.57" stroke="#CDD4BA" stroke-width="3" stroke-linecap="round" stroke-linejoin="round"/>
<path d="M291.24 374.41C291.24 376.36 290.02 377.94 288.51 377.94C287 377.94 285.79 376.36 285.79 374.41C285.79 372.46 287.01 370.87 288.51 370.87C290.01 370.87 291.24 372.45 291.24 374.41Z" fill="#CDD4BA"/>
<path d="M295.05 186.85C305.234 186.85 313.49 177.224 313.49 165.35C313.49 153.476 305.234 143.85 295.05 143.85C284.866 143.85 276.61 153.476 276.61 165.35C276.61 177.224 284.866 186.85 295.05 186.85Z" fill="#CDD4BA"/>
<path d="M295.05 165.08C298.916 165.08 302.05 161.422 302.05 156.91C302.05 152.398 298.916 148.74 295.05 148.74C291.184 148.74 288.05 152.398 288.05 156.91C288.05 161.422 291.184 165.08 295.05 165.08Z" fill="#263238" stroke="#263238" stroke-linecap="round" stroke-linejoin="round"/>
<path d="M295.05 167.25C288.05 167.25 282.32 172.62 282.32 179.25C282.326 179.867 282.382 180.482 282.49 181.09C284.043 182.902 285.969 184.357 288.137 185.354C290.305 186.352 292.664 186.868 295.05 186.868C297.436 186.868 299.795 186.352 301.963 185.354C304.131 184.357 306.057 182.902 307.61 181.09C307.709 180.482 307.763 179.866 307.77 179.25C307.77 172.62 302.07 167.25 295.05 167.25Z" fill="#263238" stroke="#263238" stroke-linecap="round" stroke-linejoin="round"/>
<path d="M317.47 259H272.63C271.443 258.953 270.324 258.437 269.517 257.565C268.711 256.693 268.284 255.537 268.33 254.35V226.67C268.33 210.72 280.33 197.74 295.05 197.74C309.77 197.74 321.76 210.74 321.76 226.67V254.33C321.786 254.918 321.695 255.506 321.493 256.059C321.291 256.613 320.982 257.121 320.583 257.555C320.185 257.988 319.705 258.339 319.171 258.587C318.636 258.835 318.059 258.976 317.47 259ZM276.92 249.7H313.17V226.7C313.17 215.88 305.04 207.07 295.05 207.07C285.06 207.07 276.92 215.88 276.92 226.7V249.7Z" fill="#263238"/>
<path d="M326.18 240.11H263.92V299.01H326.18V240.11Z" fill="#CDD4BA"/>
<path d="M304.12 280.66L299.5 269.55C300.522 268.778 301.348 267.776 301.912 266.626C302.477 265.477 302.764 264.211 302.75 262.93C302.75 258.5 299.44 254.93 295.35 254.93C291.26 254.93 287.96 258.51 287.96 262.93C287.944 264.21 288.229 265.476 288.792 266.626C289.355 267.775 290.18 268.777 291.2 269.55L286.59 280.66H304.12Z" fill="#263238" stroke="#263238" stroke-linecap="round" stroke-linejoin="round"/>
<path d="M276.08 351.94C276.176 352.01 276.291 352.049 276.41 352.05C276.495 352.05 276.579 352.029 276.654 351.989C276.729 351.948 276.793 351.891 276.84 351.82L348.22 254.73V252.89L276 351.18C275.955 351.235 275.922 351.299 275.902 351.367C275.882 351.435 275.875 351.506 275.882 351.577C275.89 351.647 275.911 351.716 275.945 351.778C275.979 351.84 276.025 351.895 276.08 351.94Z" fill="#CDD4BA"/>
<path d="M333.86 162.49C333.817 162.548 333.787 162.613 333.77 162.683C333.753 162.752 333.75 162.824 333.761 162.895C333.772 162.966 333.797 163.034 333.835 163.095C333.872 163.155 333.922 163.208 333.98 163.25C334.097 163.333 334.242 163.367 334.385 163.345C334.527 163.323 334.654 163.245 334.74 163.13L348.22 144.8V143L333.86 162.49Z" fill="#CDD4BA"/>
<path d="M241.88 289.46L330 169.63C330.085 169.513 330.12 169.368 330.097 169.225C330.075 169.083 329.997 168.955 329.88 168.87C329.763 168.785 329.618 168.75 329.475 168.773C329.333 168.795 329.205 168.873 329.12 168.99L241.92 287.62L241.88 289.46Z" fill="#CDD4BA"/>
<path d="M267.8 363.76C267.885 363.759 267.969 363.738 268.045 363.7C268.121 363.662 268.188 363.607 268.24 363.54L273.24 356.78C273.283 356.722 273.313 356.657 273.33 356.587C273.347 356.518 273.35 356.446 273.339 356.375C273.328 356.304 273.303 356.236 273.265 356.175C273.228 356.115 273.178 356.062 273.12 356.02C273.003 355.937 272.858 355.903 272.716 355.925C272.573 355.947 272.446 356.025 272.36 356.14L267.36 362.89C267.317 362.947 267.286 363.012 267.268 363.081C267.25 363.15 267.246 363.222 267.256 363.293C267.267 363.364 267.291 363.432 267.327 363.493C267.364 363.554 267.413 363.608 267.47 363.65C267.564 363.724 267.681 363.763 267.8 363.76Z" fill="#CDD4BA"/>
<path d="M348.22 274.17L289.62 353.88C289.561 353.961 289.525 354.057 289.517 354.156C289.509 354.256 289.529 354.357 289.574 354.446C289.62 354.535 289.69 354.61 289.775 354.662C289.861 354.714 289.96 354.741 290.06 354.74C290.146 354.742 290.23 354.722 290.307 354.684C290.384 354.646 290.45 354.589 290.5 354.52L348.22 276V274.17Z" fill="#CDD4BA"/>
<path d="M142.41 162.14C143.402 159.943 143.88 157.549 143.81 155.14C143.81 150.67 138.4 148.08 132.04 147.37C125.68 146.66 122.86 149.25 123.8 150.9C124.777 152.261 125.969 153.453 127.33 154.43C127.33 154.43 120.97 150.9 116.73 153.73C112.49 156.56 118.62 155.38 117.44 158.2C116.26 161.02 109.67 159.85 108.02 167.38C106.37 174.91 111.08 182.45 106.84 185.75C102.6 189.05 89.84 184.57 86.12 192.81C82.4 201.05 87.68 204.71 78.74 209.89C69.8 215.07 63.28 220.13 65.87 232.84C68.46 245.55 76.94 250 93.66 245.51C110.38 241.02 109.2 230.91 114.66 220.51C120.12 210.11 128.56 212.27 131.15 206.38C133.74 200.49 130.44 193.43 130.68 188.01C130.92 182.59 136.33 181.42 138.45 175.01C140.57 168.6 142.41 162.14 142.41 162.14Z" fill="#263238" stroke="#263238" stroke-linecap="round" stroke-linejoin="round"/>
<path d="M67.82 232.6C67.3815 233.485 67.1587 234.462 67.17 235.45" stroke="#FF5C5D" stroke-width="0.5" stroke-linecap="round" stroke-linejoin="round"/>
<path d="M133.37 157.47C133.37 157.47 130.43 154.07 136.09 155.65C143.22 157.65 134.85 165.9 131.63 167.56C125.17 170.87 116.63 169.81 111.63 175.83C107.09 181.27 113.22 186.94 110.5 191.25C107.78 195.56 96.89 193.06 93.27 198.25C89.65 203.44 99.84 214.58 89.41 220.7C81.87 225.13 73.61 226.83 69.62 230.34" stroke="#FF5C5D" stroke-width="0.5" stroke-linecap="round" stroke-linejoin="round"/>
<path d="M116.46 177.59C115.842 179.036 115.654 180.63 115.92 182.18C116.82 186.03 122.04 193.29 117.28 197.37C112.52 201.45 104.35 201.22 103 206C101.65 210.78 104.36 223.91 99.83 230C95.3 236.09 86.45 235.67 81.69 239.75C76.93 243.83 77.61 246.1 77.61 246.1" stroke="#FF5C5D" stroke-width="0.5" stroke-linecap="round" stroke-linejoin="round"/>
<path d="M118.86 173.11C118.448 173.692 118.067 174.297 117.72 174.92" stroke="#FF5C5D" stroke-width="0.5" stroke-linecap="round" stroke-linejoin="round"/>
<path d="M145.46 232.24L146.61 241.24C146.61 241.24 152.61 247.24 157.02 250.95C161.43 254.66 172.73 262.51 172.73 262.51L167 264.14C167 264.14 148.27 253.04 144.57 252.14C140.87 251.24 138.1 245.9 136.95 244.28C135.8 242.66 142.45 230.62 145.46 232.24Z" fill="#FF5C5D" stroke="#263238" stroke-linecap="round" stroke-linejoin="round"/>
<path d="M156.9 378.67C156.9 378.67 162.56 383.45 164.9 385.05C167.24 386.65 169.97 387.37 169.54 388.24C169.11 389.11 167.94 389.98 162.43 389.24C156.92 388.5 155.33 386.63 154.31 386.34C153.29 386.05 150.83 386.78 148.95 385.62C147.07 384.46 150.05 377.55 150.05 377.55C150.876 378.515 152.017 379.157 153.27 379.362C154.524 379.567 155.81 379.322 156.9 378.67Z" fill="#FF5C5D" stroke="#263238" stroke-linecap="round" stroke-linejoin="round"/>
<path d="M169.52 388.24C169.524 388.193 169.524 388.147 169.52 388.1C166.339 388.392 163.131 388.09 160.06 387.21C156.5 386.37 155.45 384.48 152.06 384.48C150.73 384.492 149.407 384.276 148.15 383.84C148.114 384.174 148.159 384.511 148.283 384.823C148.407 385.135 148.605 385.412 148.86 385.63C150.74 386.79 153.21 386.06 154.22 386.35C155.23 386.64 156.83 388.53 162.34 389.25C167.85 389.97 169.08 389.11 169.52 388.24Z" fill="#FF5C5D" stroke="#263238" stroke-linecap="round" stroke-linejoin="round"/>
<path d="M127.27 185.4C127.27 185.4 128.36 192.74 126.96 195.7C125.56 198.66 121.18 198.98 117.44 199.61C113.7 200.24 105.11 203.51 106.04 211.94C106.97 220.37 117.75 238.63 117.75 243.78C117.75 248.93 114.47 251.58 110.88 261.57C107.29 271.56 107.76 290.14 108.88 302.16C109.701 310.093 111.268 317.931 113.56 325.57C113.56 325.57 104.56 340.09 100.56 346.33C96.56 352.57 82.56 379.74 82.56 379.74C82.56 379.74 82.56 380.67 84.74 381.3C86.2737 381.673 87.8605 381.778 89.43 381.61C89.43 381.61 116.27 349.3 121.27 343.84C126.27 338.38 130.95 328.84 131.57 324.48C132.19 320.12 131.42 293.42 131.42 293.42C131.42 293.42 137.03 306.84 141.42 313.71C144.083 317.914 146.526 322.253 148.74 326.71C148.125 332.36 148.125 338.06 148.74 343.71C149.83 351.51 148.91 376.57 150 378.6C151.09 380.63 155.32 379.78 156.26 378.85C157.2 377.92 157.64 371.85 157.64 371.85C157.64 371.85 159.51 352.85 160.64 343.91C161.77 334.97 163.64 327.36 162.99 325.33C162.34 323.3 158.46 301.6 155.49 291.33C152.52 281.06 143.49 261.83 141.49 256.84C139.49 251.85 138.36 247.31 138.68 245.75C139 244.19 145.08 234.83 146.68 232.33C147.592 230.635 148.095 228.751 148.149 226.827C148.203 224.903 147.806 222.993 146.99 221.25C145.12 217.19 146.99 211.72 146.68 208.45C146.37 205.18 141.53 203.76 139.03 202.52C136.53 201.28 135.59 198.46 135.59 196.12C135.743 194.149 136.219 192.216 137 190.4C137 190.4 129.3 185.4 127.27 185.4Z" fill="#5B721C" stroke="#263238" stroke-linecap="round" stroke-linejoin="round"/>
<path d="M146.19 218.79C145.368 216.7 144.683 214.559 144.14 212.38" stroke="#263238" stroke-linecap="round" stroke-linejoin="round"/>
<path d="M125.92 236.17C125.92 236.17 128.74 236.79 134.39 233.97" stroke="#263238" stroke-linecap="round" stroke-linejoin="round"/>
<path d="M155.52 291.23C152.69 281.39 144.3 263.42 141.79 257.49C129.79 261.99 118.57 258.15 113.3 255.67C112.54 257.33 111.72 259.25 110.88 261.57C107.29 271.57 107.76 290.14 108.88 302.16C109.701 310.093 111.268 317.931 113.56 325.57C113.56 325.57 104.56 340.09 100.56 346.33C96.56 352.57 82.56 379.74 82.56 379.74C82.56 379.74 82.56 380.67 84.74 381.3C86.2737 381.673 87.8605 381.778 89.43 381.61C89.43 381.61 116.27 349.3 121.27 343.84C126.27 338.38 130.95 328.84 131.57 324.48C132.19 320.12 131.42 293.42 131.42 293.42C131.42 293.42 137.03 306.84 141.42 313.71C144.083 317.914 146.526 322.253 148.74 326.71C148.125 332.36 148.125 338.06 148.74 343.71C149.83 351.51 148.91 376.57 150 378.6C151.09 380.63 155.32 379.78 156.26 378.85C157.2 377.92 157.64 371.85 157.64 371.85C157.64 371.85 159.51 352.85 160.64 343.91C161.77 334.97 163.64 327.36 162.99 325.33C162.34 323.3 158.49 301.53 155.52 291.23Z" fill="#263238" stroke="#263238" stroke-linecap="round" stroke-linejoin="round"/>
<path d="M216.66 281.32V279.28H218.37V263.26H216.66H199.78H198.07V279.28H199.78V281.32H198.06V285.04H204.65V283.79H211.79V285.04H218.38V281.32H216.66Z" fill="#5B721C" stroke="#263238" stroke-linecap="round" stroke-linejoin="round"/>
<path d="M107.56 258.47H225.32C225.792 258.47 226.245 258.658 226.579 258.991C226.912 259.325 227.1 259.778 227.1 260.25V263.83C227.1 264.302 226.912 264.755 226.579 265.089C226.245 265.422 225.792 265.61 225.32 265.61H107.56V258.46V258.47Z" fill="#5B721C" stroke="#263238" stroke-linecap="round" stroke-linejoin="round"/>
<path d="M192.08 257.4H184.91C184.363 257.4 183.92 257.843 183.92 258.39V265.7C183.92 266.247 184.363 266.69 184.91 266.69H192.08C192.627 266.69 193.07 266.247 193.07 265.7V258.39C193.07 257.843 192.627 257.4 192.08 257.4Z" fill="#5B721C" stroke="#263238" stroke-linecap="round" stroke-linejoin="round"/>
<path d="M111.244 265.052C112.903 254.92 106.035 245.361 95.9029 243.702C85.7709 242.043 76.2122 248.912 74.553 259.044C72.8938 269.176 79.7624 278.734 89.8945 280.393C100.026 282.053 109.585 275.184 111.244 265.052Z" fill="#5B721C" stroke="#263238" stroke-linecap="round" stroke-linejoin="round"/>
<path d="M96.72 262C97.7978 261.484 98.7124 260.681 99.3633 259.679C100.014 258.677 100.376 257.514 100.41 256.32C100.41 252.67 97.05 249.71 92.9 249.71C88.75 249.71 85.39 252.71 85.39 256.32C85.4213 257.515 85.7826 258.678 86.4338 259.681C87.085 260.683 88.0009 261.486 89.08 262C88.0015 262.518 87.0865 263.323 86.4356 264.327C85.7846 265.33 85.4229 266.494 85.39 267.69C85.39 271.34 88.75 274.3 92.9 274.3C97.05 274.3 100.41 271.3 100.41 267.69C100.375 266.495 100.012 265.332 99.3616 264.328C98.7109 263.325 97.7971 262.52 96.72 262Z" fill="#CDD4BA" stroke="#263238" stroke-linecap="round" stroke-linejoin="round"/>
<path d="M169.06 265.77C169.06 265.77 174.88 268.23 176.68 268.23C178.48 268.23 180.56 266.42 181.59 264.23C182.62 262.04 182.59 261 181.98 261.52L180.69 262.52C180.69 262.52 181.69 260.33 180.56 260.59C179.778 260.851 179.128 261.407 178.75 262.14C178.75 262.14 178.62 260.2 177.59 261.14C176.908 261.757 176.301 262.452 175.78 263.21C175.78 263.21 175.65 260.76 175 261.4C174.35 262.04 171.91 265.53 171.91 265.53L169.06 265.77Z" fill="#FF5C5D" stroke="#263238" stroke-linecap="round" stroke-linejoin="round"/>
<path d="M175.78 263.19C175.78 263.19 175.39 266.29 173.46 266.81Z" fill="#FF5C5D"/>
<path d="M175.78 263.19C175.78 263.19 175.39 266.29 173.46 266.81" stroke="#263238" stroke-linecap="round" stroke-linejoin="round"/>
<path d="M178.75 262.16C178.75 262.16 177.75 267.06 176.17 267.84Z" fill="#FF5C5D"/>
<path d="M178.75 262.16C178.75 262.16 177.75 267.06 176.17 267.84" stroke="#263238" stroke-linecap="round" stroke-linejoin="round"/>
<path d="M180.69 262.54C180.174 264.328 179.481 266.06 178.62 267.71Z" fill="#FF5C5D"/>
<path d="M180.69 262.54C180.174 264.328 179.481 266.06 178.62 267.71" stroke="#263238" stroke-linecap="round" stroke-linejoin="round"/>
<path d="M138.66 202.22C137.653 201.54 136.837 200.613 136.291 199.527C135.744 198.442 135.486 197.234 135.54 196.02C135.719 194.08 136.212 192.182 137 190.4C137 190.4 129.35 185.4 127.32 185.4C127.32 185.4 128.41 192.74 127.01 195.7C126.551 196.621 125.803 197.365 124.88 197.82C126.729 202.798 129.234 207.506 132.33 211.82C135.14 215.35 136.51 207.91 138.66 202.22Z" fill="#FF5C5D" stroke="#263238" stroke-linecap="round" stroke-linejoin="round"/>
<path d="M115.05 200.62C113.142 200.946 111.335 201.711 109.773 202.854C108.212 203.998 106.937 205.489 106.05 207.21C102.97 213.15 89.51 240.11 90.66 241.72C97.2 250.92 120.99 257.54 123.41 259.96C125.829 262.491 128.485 264.784 131.34 266.81C133.76 268.35 138.59 267.69 139.47 267.25C140.35 266.81 141.01 264.83 139.47 264.83C138.882 264.838 138.308 264.643 137.846 264.279C137.384 263.915 137.06 263.404 136.93 262.83C136.71 261.95 139.35 263.71 140.67 263.05C141.99 262.39 137.72 259.98 136.4 258.88C135.08 257.78 133.98 256.25 132.22 256.25C130.46 256.25 127.15 256.25 127.15 256.25C127.15 256.25 119.05 250.38 114.15 246.01C110.337 242.57 106.178 239.533 101.74 236.95L116.59 212.52" fill="#FF5C5D"/>
<path d="M115.05 200.62C113.142 200.946 111.335 201.711 109.773 202.854C108.212 203.998 106.937 205.489 106.05 207.21C102.97 213.15 89.51 240.11 90.66 241.72C97.2 250.92 120.99 257.54 123.41 259.96C125.829 262.491 128.485 264.784 131.34 266.81C133.76 268.35 138.59 267.69 139.47 267.25C140.35 266.81 141.01 264.83 139.47 264.83C138.882 264.838 138.308 264.643 137.846 264.279C137.384 263.915 137.06 263.404 136.93 262.83C136.71 261.95 139.35 263.71 140.67 263.05C141.99 262.39 137.72 259.98 136.4 258.88C135.08 257.78 133.98 256.25 132.22 256.25C130.46 256.25 127.15 256.25 127.15 256.25C127.15 256.25 119.05 250.38 114.15 246.01C110.337 242.57 106.178 239.533 101.74 236.95L116.59 212.52" stroke="#263238" stroke-linecap="round" stroke-linejoin="round"/>
<path d="M136.39 258.89C135.07 257.79 133.97 256.26 132.21 256.26C130.45 256.26 127.14 256.26 127.14 256.26C127.14 256.26 119.04 250.39 114.14 246.02C110.327 242.58 106.168 239.543 101.73 236.96L107.67 227.18C104.633 225.342 101.159 224.351 97.61 224.31C93.61 232.65 90.02 240.89 90.61 241.76C97.15 250.96 120.94 257.58 123.36 260C125.779 262.531 128.435 264.824 131.29 266.85C133.71 268.39 138.54 267.73 139.42 267.29C140.3 266.85 140.96 264.87 139.42 264.87C138.832 264.878 138.258 264.683 137.796 264.319C137.334 263.955 137.01 263.444 136.88 262.87C136.66 261.99 139.3 263.75 140.62 263.09C141.94 262.43 137.71 260 136.39 258.89Z" fill="#FF5C5D" stroke="#263238" stroke-linecap="round" stroke-linejoin="round"/>
<path d="M144.44 174.63C143.66 173.07 143.66 171.82 143.97 169.63C144.28 167.44 142.41 162.13 142.41 162.13C140.5 165.43 134.98 167.39 132.54 168.13C129.85 168.95 133.78 170.81 133.36 173.3C132.94 175.79 127.57 177.23 127.57 177.23C127.57 177.23 126 174 123.82 174C121.64 174 120.09 179 121.33 181.65C121.653 182.384 122.216 182.987 122.926 183.359C123.637 183.732 124.452 183.852 125.24 183.7C125.24 183.7 125.09 188.39 128.05 189.79C131.208 191.297 134.503 192.499 137.89 193.38C139.76 193.69 141.63 192.76 142.41 189.95C143.02 187.118 143.438 184.248 143.66 181.36C144.969 180.503 146.174 179.496 147.25 178.36C148 177.28 145.22 176.19 144.44 174.63Z" fill="#FF5C5D" stroke="#263238" stroke-linecap="round" stroke-linejoin="round"/>
<path d="M141.4 174.7C141.4 175.56 141.12 176.25 140.78 176.25C140.44 176.25 140.16 175.56 140.16 174.7C140.16 173.84 140.44 173.15 140.78 173.15C141.12 173.15 141.4 173.84 141.4 174.7Z" fill="#263238"/>
<path d="M138.71 172.12C138.71 172.12 140.37 170.25 141.61 170.67" stroke="#263238" stroke-linecap="round" stroke-linejoin="round"/>
<path d="M141.61 184.94C140.861 185.166 140.065 185.193 139.302 185.017C138.539 184.842 137.835 184.471 137.26 183.94" stroke="#263238" stroke-linecap="round" stroke-linejoin="round"/>
<path d="M82.63 379.74C82.63 379.74 78.9 387.22 79.04 388.24C79.18 389.26 86.58 394.62 90.04 396.5C93.5 398.38 99.76 398.68 99.32 396.07C98.88 393.46 92.94 391.72 91.49 387.8C90.7178 385.772 90.0503 383.706 89.49 381.61C87.0728 381.646 84.6946 380.998 82.63 379.74Z" fill="#FF5C5D" stroke="#263238" stroke-linecap="round" stroke-linejoin="round"/>
<path d="M99.34 396.11C96.6776 396.467 93.9683 396.083 91.51 395C86.14 392.67 80.94 387.91 79.51 386.56C79.256 387.099 79.0938 387.677 79.03 388.27C79.18 389.27 86.57 394.65 90.03 396.53C93.49 398.41 99.7 398.67 99.34 396.11Z" fill="#FF5C5D" stroke="#263238" stroke-linecap="round" stroke-linejoin="round"/>
</svg>
