<svg width="26" height="26" viewBox="0 0 26 26" fill="none" xmlns="http://www.w3.org/2000/svg">
<path d="M2.43515 20.403C0.561075 17.9858 2.41656 8.65111 3.22345 5.50409C3.37715 4.8985 3.718 4.52857 4.24601 4.39427C9.66497 3.00066 15.167 2.25823 20.752 2.16701C23.195 2.1252 22.4625 5.89176 22.4662 7.47287C22.4664 7.52822 22.482 7.58214 22.511 7.62804C22.5401 7.67395 22.5814 7.70983 22.6298 7.73132C24.1915 8.44206 24.5113 9.55569 24.3291 11.2812C23.9598 14.7551 23.2024 18.1314 22.0572 21.4102C21.5998 22.7253 20.6181 23.6869 19.3018 23.7629C13.5383 24.0948 8.27924 23.2536 3.52464 21.2392C3.09083 21.0568 2.72767 20.7781 2.43515 20.403ZM10.0504 5.5915C12.776 5.57629 15.8846 6.21862 20.0939 7.0928C20.2451 7.1232 20.3244 7.05986 20.3318 6.90276L20.4397 4.68691C20.4417 4.65239 20.4368 4.61783 20.4251 4.58535C20.4135 4.55288 20.3954 4.52321 20.372 4.49822C20.3486 4.47324 20.3204 4.45347 20.2892 4.44016C20.2579 4.42684 20.2244 4.42029 20.1905 4.42088C16.7944 4.47916 13.423 4.79968 10.0765 5.38246C10.0517 5.38753 10.0356 5.40273 10.0281 5.42807C10.0182 5.45847 10.0083 5.48887 9.99839 5.51928C9.98104 5.56742 9.99839 5.5915 10.0504 5.5915ZM21.6816 15.7661C21.6816 15.246 21.4795 14.7471 21.1196 14.3793C20.7598 14.0116 20.2718 13.8049 19.7629 13.8049C19.254 13.8049 18.766 14.0116 18.4062 14.3793C18.0464 14.7471 17.8442 15.246 17.8442 15.7661C17.8442 16.2863 18.0464 16.7851 18.4062 17.1529C18.766 17.5207 19.254 17.7273 19.7629 17.7273C20.2718 17.7273 20.7598 17.5207 21.1196 17.1529C21.4795 16.7851 21.6816 16.2863 21.6816 15.7661Z" fill="#5B721C"/>
</svg>
